<svg width="1440" height="990" viewBox="0 0 1440 990" fill="none" xmlns="http://www.w3.org/2000/svg">
<rect x="2" y="412" width="1438" height="185" fill="#F5F6FA"/>
<path d="M401.674 545.888C353.527 498.488 319.75 607.76 251.16 563.325C182.571 518.891 134.657 536.73 112.725 544.817C77.4457 569.935 54.6985 579.284 11.8766 592.965C-50.6084 584.771 -76.1286 596.464 -118.553 611.169C-180.698 600.359 -206.946 607.009 -219.286 664.769C-251.502 736.897 -279.247 748.134 -354.98 717.287" stroke="#B6B0B0" stroke-opacity="0.6"/>
<path d="M400.321 536.798C357.338 494.854 315.051 598.532 248.977 554.702C182.903 510.872 129.284 523.964 109.821 531.239C77.3344 560.82 55.04 570.839 10.86 582.08C-54.1075 569.721 -79.8653 581.387 -120.996 600.754C-184.339 591.335 -210.404 598.912 -219.09 659.404C-249.259 734.181 -277.18 746.549 -355.897 714.907" stroke="#B6B0B0" stroke-opacity="0.6"/>
<path d="M398.938 527.705C361.166 491.17 310.321 589.332 246.766 546.082C183.211 502.833 123.844 511.23 106.842 517.67C77.1872 551.692 55.3511 562.375 9.79047 571.19C-57.6974 554.687 -83.6935 566.329 -123.489 590.345C-188.021 582.329 -213.894 590.832 -218.902 654.024C-247.002 731.434 -275.089 744.935 -356.797 712.523" stroke="#B6B0B0" stroke-opacity="0.6"/>
<path d="M397.525 518.608C365.012 487.435 305.558 580.159 244.526 537.468C183.495 494.776 118.337 498.528 103.788 504.113C77.0038 542.55 55.6313 553.894 8.66796 560.295C-61.3781 539.67 -87.6131 551.29 -126.034 579.945C-191.742 573.342 -217.417 582.769 -218.723 648.63C-244.732 728.655 -272.975 743.29 -357.684 710.135" stroke="#B6B0B0" stroke-opacity="0.6"/>
<path d="M396.083 509.508C368.874 483.651 300.763 571.013 242.258 528.857C183.754 486.701 112.763 485.859 100.66 490.567C76.7843 533.394 55.8808 545.395 7.49253 549.395C-65.1493 524.671 -91.6241 536.271 -128.63 569.552C-195.504 564.372 -220.972 574.722 -218.554 643.221C-242.448 725.844 -270.838 741.616 -358.555 707.743" stroke="#B6B0B0" stroke-opacity="0.6"/>
<path d="M394.612 500.405C372.753 479.815 295.937 561.896 239.962 520.251C183.988 478.607 107.123 473.224 97.4574 477.032C76.5283 524.225 56.0991 536.879 6.26392 538.49C-69.0112 509.69 -95.7263 521.272 -131.277 559.168C-199.305 555.422 -224.559 566.693 -218.393 637.797C-240.151 723.001 -268.678 739.911 -359.411 705.346" stroke="#B6B0B0" stroke-opacity="0.6"/>
<path d="M393.11 491.299C376.649 475.93 291.079 552.807 237.638 511.651C184.197 470.494 101.417 460.622 94.1802 463.51C76.2358 515.044 56.2864 528.347 4.98221 527.582C-72.9635 494.728 -99.9197 506.295 -133.975 548.793C-203.146 546.49 -228.178 558.68 -218.241 632.358C-237.84 720.126 -266.496 738.176 -360.252 702.945" stroke="#B6B0B0" stroke-opacity="0.6"/>
<path d="M391.579 482.191C380.56 471.993 286.19 543.745 235.285 503.054C184.381 462.364 95.6447 448.053 90.8287 450C75.9068 505.849 56.4425 519.797 3.64746 516.67C-77.0061 479.785 -104.204 491.339 -136.725 538.427C-207.027 537.577 -231.83 550.685 -218.099 626.905C-235.517 717.219 -264.291 736.41 -361.079 700.54" stroke="#B6B0B0" stroke-opacity="0.6"/>
<path d="M390.019 473.08C384.487 468.005 281.269 534.713 232.904 494.464C184.54 454.215 89.8065 435.52 87.4028 436.504C75.5411 496.642 56.5672 511.231 2.25937 505.754C-81.1391 464.862 -108.579 476.405 -139.525 528.071C-210.948 528.684 -235.513 542.708 -217.966 621.437C-233.181 714.281 -262.064 734.614 -361.89 698.13" stroke="#B6B0B0" stroke-opacity="0.6"/>
<path d="M1022.47 529.24C1077.88 567.899 1092.86 454.512 1167.93 486.821C1242.99 519.129 1287.24 493.511 1307.51 481.862C1338.08 451.187 1358.93 438.156 1398.86 417.492C1461.83 415.095 1485.03 399.29 1524.39 377.682C1587.47 377.923 1612.23 366.967 1614.71 307.955C1634.38 231.447 1659.85 215.719 1739.68 233.435" stroke="#B6B0B0" stroke-opacity="0.6"/>
<path d="M1025.32 537.975C1074.73 572.121 1099.04 462.822 1171.52 494.956C1244.01 527.091 1294.68 505.196 1312.64 494.762C1339.71 460.154 1360.01 446.54 1401.68 428.052C1467.8 429.346 1491.24 413.528 1528.54 387.541C1592.57 386.208 1617 374.369 1615.42 313.277C1632.63 234.501 1658.08 217.628 1740.99 235.628" stroke="#B6B0B0" stroke-opacity="0.6"/>
<path d="M1028.21 546.708C1071.57 576.395 1105.24 471.099 1175.15 503.083C1245.05 535.067 1302.17 516.838 1317.86 507.639C1341.39 469.128 1361.12 454.936 1404.56 438.609C1473.86 443.565 1497.54 427.731 1532.75 397.384C1597.71 394.469 1621.79 381.75 1616.14 318.612C1630.86 237.588 1656.29 219.57 1742.27 237.827" stroke="#B6B0B0" stroke-opacity="0.6"/>
<path d="M1031.13 555.44C1068.41 580.721 1111.48 479.344 1178.8 511.201C1246.13 543.058 1309.73 528.437 1323.14 520.493C1343.1 478.11 1362.27 463.344 1407.5 449.162C1480.01 457.753 1503.92 441.901 1537 407.211C1602.88 402.706 1626.62 389.109 1616.86 323.961C1629.09 240.709 1654.48 221.546 1743.55 240.033" stroke="#B6B0B0" stroke-opacity="0.6"/>
<path d="M1034.08 564.17C1065.23 585.1 1117.74 487.556 1182.48 519.31C1247.22 551.063 1317.35 539.993 1328.49 533.323C1344.85 487.1 1363.45 471.765 1410.48 459.711C1486.24 471.908 1510.4 456.035 1541.3 417.021C1608.1 410.918 1631.47 396.446 1617.6 329.322C1627.31 243.863 1652.65 223.555 1744.81 242.246" stroke="#B6B0B0" stroke-opacity="0.6"/>
<path d="M1037.05 572.897C1062.05 589.531 1124.02 495.736 1186.19 527.408C1248.35 559.081 1325.03 551.504 1333.92 546.129C1346.64 496.096 1364.66 480.196 1413.52 470.255C1492.56 486.03 1516.95 470.134 1545.65 426.814C1613.34 419.105 1636.35 403.761 1618.35 334.696C1625.52 247.05 1650.81 225.597 1746.05 244.465" stroke="#B6B0B0" stroke-opacity="0.6"/>
<path d="M1040.06 581.622C1058.86 594.015 1130.34 503.882 1189.92 535.498C1249.5 567.114 1332.77 562.972 1339.42 558.911C1348.47 505.099 1365.91 488.64 1416.61 480.794C1498.96 500.118 1523.6 484.196 1550.05 436.59C1618.63 427.267 1641.26 411.053 1619.12 340.083C1623.73 250.272 1648.95 227.674 1747.29 246.691" stroke="#B6B0B0" stroke-opacity="0.6"/>
<path d="M1043.09 590.345C1055.67 598.551 1136.68 511.995 1193.68 543.578C1250.68 575.16 1340.56 574.394 1344.99 571.668C1350.33 514.108 1367.19 497.094 1419.76 491.328C1505.45 514.171 1530.33 498.222 1554.5 446.348C1623.95 435.402 1646.2 418.323 1619.89 345.483C1621.92 253.526 1647.07 229.784 1748.5 248.923" stroke="#B6B0B0" stroke-opacity="0.6"/>
<path d="M1046.16 599.065C1052.46 603.141 1143.04 520.076 1197.47 551.648C1251.89 583.22 1348.42 585.772 1350.63 584.399C1352.24 523.123 1368.5 505.56 1422.96 501.856C1512.03 528.191 1537.15 512.211 1558.99 456.089C1629.3 443.512 1651.17 425.57 1620.67 350.895C1620.11 256.815 1645.18 231.928 1749.71 251.163" stroke="#B6B0B0" stroke-opacity="0.6"/>
</svg>
