<svg width="1438" height="963" viewBox="0 0 1438 963" fill="none" xmlns="http://www.w3.org/2000/svg">
<rect y="21" width="1438" height="660" fill="#F0F1F5"/>
<path d="M606.633 546.631C500.301 430.24 564.56 612.541 466.149 559.067C367.739 505.594 384.837 584.248 332.736 600.383C267.011 570.132 239.265 571.174 210.971 615.024C175.266 658.426 152.534 670.62 97.744 628.614C50.8288 601.928 22.9781 597.351 -31.281 619.963C-86.2421 659.056 -111.152 656.875 -151.804 637.554" stroke="#B6B0B0" stroke-opacity="0.36"/>
<path d="M579.428 355.967C579.428 355.967 467.318 417.709 421.496 377.879C375.674 338.049 274.903 315.021 274.903 315.021C266.139 379.423 247.66 394.649 191.818 386.836C105.638 341.96 77.9549 353.495 48.6233 409.725C-23.9073 411.811 -48.2282 426.748 -26.8422 507.956C-39.8322 603.31 -68.8146 624.787 -171.687 587.715" stroke="#B6B0B0" stroke-opacity="0.36"/>
<path d="M605.629 537.597C503.873 427.197 560.26 603.003 464.306 550.408C368.352 497.813 380.282 571.134 330.73 586.72C267.323 561.204 239.963 562.957 210.584 604.233C172.863 643.228 149.903 655.368 95.919 618.136C47.677 592.713 19.9173 589.078 -30.989 614.782C-84.1845 656.713 -109.382 655.637 -152.903 635.218" stroke="#B6B0B0" stroke-opacity="0.36"/>
<path d="M604.597 528.558C507.466 424.105 555.927 593.489 462.434 541.751C368.942 490.012 375.659 558.047 328.65 573.061C267.601 552.259 240.632 554.721 210.146 593.432C170.368 628.038 147.18 640.126 94.0426 607.661C44.4841 583.512 16.823 580.818 -30.7042 609.585C-82.1101 654.339 -107.586 654.371 -153.986 632.878" stroke="#B6B0B0" stroke-opacity="0.36"/>
<path d="M603.536 519.512C511.082 420.964 551.559 584.001 460.534 533.096C369.509 482.19 370.966 544.987 326.495 559.407C267.844 543.297 241.271 546.464 209.655 582.622C167.782 612.858 144.364 624.896 92.1146 597.19C41.2498 574.326 13.6952 572.571 -30.427 604.373C-80.0195 651.935 -105.764 653.077 -155.055 630.534" stroke="#B6B0B0" stroke-opacity="0.36"/>
<path d="M602.446 510.462C514.718 417.774 547.158 574.537 458.606 524.442C370.054 474.348 366.205 531.954 324.265 545.757C268.052 534.319 241.882 538.187 209.112 571.802C165.104 597.688 141.456 609.678 90.1352 586.723C37.9745 565.154 10.5342 564.338 -30.1572 599.145C-77.9125 649.499 -103.917 651.754 -156.107 628.187" stroke="#B6B0B0" stroke-opacity="0.36"/>
<path d="M601.327 501.406C518.375 414.536 542.723 565.099 456.649 515.792C370.576 466.485 361.375 518.949 321.96 532.114C268.225 525.325 242.463 529.891 208.516 560.974C162.335 582.529 138.456 594.474 88.1042 576.26C34.6582 555.999 7.33975 556.12 -29.8952 593.901C-75.7897 647.032 -102.045 650.403 -157.145 625.838" stroke="#B6B0B0" stroke-opacity="0.36"/>
<path d="M600.178 492.346C522.053 411.249 538.255 555.686 454.664 507.144C371.074 458.602 356.477 505.972 319.579 518.478C268.363 516.315 243.015 521.575 207.868 550.138C159.474 567.381 135.363 579.284 86.0216 565.802C31.3008 546.858 4.11205 547.916 -29.6411 588.643C-73.6513 644.535 -100.147 649.024 -158.167 623.484" stroke="#B6B0B0" stroke-opacity="0.36"/>
<path d="M599.001 483.28C525.75 407.913 533.753 546.3 452.651 498.5C371.55 450.7 351.51 493.024 317.124 504.848C268.465 507.289 243.537 513.24 207.168 539.294C156.521 552.246 132.177 564.108 83.8877 555.349C27.9027 537.734 0.851381 539.727 -29.3947 583.368C-71.4971 642.007 -98.2249 647.615 -159.174 621.127" stroke="#B6B0B0" stroke-opacity="0.36"/>
<path d="M597.794 474.211C529.468 404.527 529.218 536.939 450.61 489.858C372.001 442.777 346.475 480.105 314.594 491.225C268.532 498.248 244.029 504.886 206.415 528.442C153.478 537.123 128.9 548.947 81.7023 544.901C24.4638 528.626 -2.44244 531.553 -29.1565 578.079C-69.3278 639.448 -96.2779 646.177 -160.165 618.767" stroke="#B6B0B0" stroke-opacity="0.36"/>
<path d="M596.558 465.136C533.204 401.092 524.65 527.604 448.54 481.22C372.43 434.835 341.372 467.216 311.989 477.61C268.564 489.192 244.492 496.514 205.61 517.583C150.343 522.014 125.531 533.801 79.4656 534.459C20.9843 519.534 -5.76911 523.393 -28.9263 572.774C-67.1432 636.857 -94.3064 644.711 -161.142 616.403" stroke="#B6B0B0" stroke-opacity="0.36"/>
<path d="M595.293 456.058C536.96 397.607 520.049 518.296 446.442 472.585C372.834 426.873 336.201 454.357 309.309 464.004C268.56 480.121 244.924 488.122 204.751 506.716C147.117 506.918 122.07 518.672 77.1773 524.022C17.464 510.458 -9.1288 515.25 -28.7046 567.454C-64.944 634.236 -92.3106 643.215 -162.103 614.035" stroke="#B6B0B0" stroke-opacity="0.36"/>
<path d="M593.998 446.975C540.734 394.073 515.416 509.015 444.315 463.953C373.214 418.892 330.963 441.528 306.554 450.406C268.521 471.035 245.327 479.713 203.84 495.844C143.8 491.837 118.516 503.559 74.8376 513.593C13.9033 501.4 -12.5212 507.121 -28.4912 562.12C-62.73 631.582 -90.2909 641.689 -163.049 611.663" stroke="#B6B0B0" stroke-opacity="0.36"/>
<path d="M592.674 437.888C544.527 390.488 510.75 499.76 442.16 455.325C373.571 410.891 325.657 428.73 303.725 436.817C268.446 461.935 245.699 471.284 202.877 484.965C140.392 476.771 114.871 488.464 72.4467 503.169C10.3023 492.359 -15.9464 499.009 -28.2863 556.769C-60.5016 628.897 -88.2472 640.134 -163.98 609.287" stroke="#B6B0B0" stroke-opacity="0.36"/>
<path d="M591.321 428.798C548.338 386.854 506.051 490.532 439.977 446.702C373.903 402.872 320.284 415.964 300.821 423.239C268.334 452.82 246.04 462.839 201.86 474.08C136.892 461.721 111.135 473.387 70.0044 492.754C6.66095 483.335 -19.4041 490.912 -28.0899 551.404C-58.259 626.181 -86.18 638.549 -164.897 606.907" stroke="#B6B0B0" stroke-opacity="0.36"/>
<path d="M589.938 419.705C552.166 383.17 501.321 481.332 437.766 438.082C374.211 394.833 314.844 403.23 297.842 409.67C268.187 443.692 246.351 454.375 200.79 463.19C133.303 446.687 107.307 458.329 67.5108 482.345C2.97947 474.329 -22.8942 482.832 -27.9023 546.024C-56.0023 623.434 -84.0891 636.935 -165.797 604.523" stroke="#B6B0B0" stroke-opacity="0.36"/>
<path d="M588.525 410.608C556.012 379.435 496.558 472.159 435.526 429.468C374.495 386.776 309.337 390.528 294.788 396.113C268.004 434.55 246.631 445.894 199.668 452.295C129.622 431.67 103.387 443.29 64.966 471.945C-0.742132 465.342 -26.4169 474.769 -27.7235 540.63C-53.7319 620.655 -81.9751 635.29 -166.684 602.135" stroke="#B6B0B0" stroke-opacity="0.36"/>
<path d="M587.083 401.508C559.874 375.651 491.763 463.013 433.258 420.857C374.754 378.701 303.763 377.859 291.66 382.567C267.784 425.394 246.881 437.395 198.493 441.395C125.851 416.671 99.3759 428.271 62.3701 461.552C-4.50361 456.372 -29.9718 466.722 -27.5536 535.221C-51.4478 617.844 -79.838 633.616 -167.555 599.743" stroke="#B6B0B0" stroke-opacity="0.36"/>
<path d="M585.612 392.405C563.753 371.815 486.937 453.896 430.962 412.251C374.988 370.607 298.123 365.224 288.457 369.032C267.528 416.225 247.099 428.879 197.264 430.49C121.989 401.69 95.2737 413.272 59.7229 451.168C-8.30506 447.422 -33.559 458.693 -27.3928 529.797C-49.1505 615.001 -77.6782 631.911 -168.411 597.346" stroke="#B6B0B0" stroke-opacity="0.36"/>
<path d="M584.11 383.299C567.649 367.93 482.079 444.807 428.638 403.651C375.197 362.494 292.417 352.622 285.18 355.51C267.236 407.044 247.286 420.347 195.982 419.582C118.036 386.728 91.0803 398.295 57.0245 440.793C-12.1463 438.49 -37.1784 450.68 -27.2412 524.358C-46.8401 612.126 -75.4958 630.176 -169.252 594.945" stroke="#B6B0B0" stroke-opacity="0.36"/>
<path d="M582.579 374.191C571.56 363.993 477.19 435.745 426.285 395.054C375.381 354.364 286.645 340.053 281.829 342C266.907 397.849 247.443 411.797 194.647 408.67C113.994 371.785 86.796 383.339 54.2752 430.427C-16.0271 429.577 -40.8297 442.685 -27.0987 518.905C-44.5167 609.219 -73.2908 628.41 -170.079 592.54" stroke="#B6B0B0" stroke-opacity="0.36"/>
<path d="M581.019 365.08C575.487 360.005 472.269 426.713 423.904 386.464C375.54 346.215 280.806 327.52 278.403 328.504C266.541 388.642 247.567 403.231 193.259 397.754C109.861 356.862 82.4208 368.405 51.4747 420.071C-19.9476 420.684 -44.5131 434.708 -26.9658 513.437C-42.1808 606.281 -71.0638 626.614 -170.89 590.13" stroke="#B6B0B0" stroke-opacity="0.36"/>
<path d="M601.426 405.14C696.159 531.151 649.6 343.548 742.455 406.174C835.31 468.799 825.8 388.872 879.204 377.785C941.74 414.173 969.459 415.786 1001.81 374.838C1041.5 335.043 1065.29 325.075 1115.82 372.121C1159.97 403.165 1187.26 410.379 1243.43 393.052C1301.87 359.385 1326.46 363.935 1365.08 387.049" stroke="#C4BEBE" stroke-opacity="0.35"/>
<path d="M610.301 597.53C610.301 597.53 727.795 546.775 769.605 590.798C811.414 634.82 909.526 667.365 909.526 667.365C924.399 604.095 944.247 590.703 999.088 603.812C1080.59 656.712 1109.25 647.872 1143.81 594.7C1216.21 599.549 1241.85 587.002 1228.31 504.124C1250.35 410.445 1281.25 391.834 1380.11 438.559" stroke="#C4BEBE" stroke-opacity="0.35"/>
<path d="M601.562 414.228C692.313 533.84 652.969 353.453 743.463 414.969C833.957 476.486 829.082 402.361 879.896 391.578C940.577 423.031 967.98 423.898 1001.17 385.617C1042.44 350.402 1066.45 340.509 1116.63 382.726C1162.23 412.639 1189.51 418.908 1242.64 398.182C1299.6 361.521 1324.58 364.998 1365.95 389.48" stroke="#C4BEBE" stroke-opacity="0.35"/>
<path d="M601.727 423.325C688.44 536.575 656.375 363.337 744.5 423.766C832.625 484.195 832.435 415.83 880.662 405.373C939.446 431.909 966.528 432.034 1000.57 396.41C1043.47 365.76 1067.71 355.942 1117.5 393.332C1164.53 422.103 1191.81 427.426 1241.86 403.328C1297.31 363.686 1322.67 366.087 1366.81 391.913" stroke="#C4BEBE" stroke-opacity="0.35"/>
<path d="M601.919 432.43C684.542 539.356 659.816 373.199 745.565 432.563C831.313 491.927 835.859 429.278 881.504 419.17C938.349 440.806 965.102 440.191 1000.03 407.218C1044.6 381.117 1069.06 371.37 1118.42 403.939C1166.87 431.555 1194.13 435.933 1241.09 408.489C1295 365.88 1320.73 367.201 1367.64 394.347" stroke="#C4BEBE" stroke-opacity="0.35"/>
<path d="M602.14 441.543C680.617 542.183 663.294 383.04 746.658 441.36C830.022 499.681 839.354 442.706 882.421 432.97C937.285 449.724 963.704 448.372 999.534 418.039C1045.81 396.474 1070.5 386.796 1119.39 414.547C1169.26 440.997 1196.49 444.43 1240.32 413.668C1292.67 368.103 1318.77 368.341 1368.47 396.784" stroke="#C4BEBE" stroke-opacity="0.35"/>
<path d="M602.39 450.664C676.668 545.058 666.807 392.858 747.78 450.158C828.752 507.458 842.92 456.113 883.413 446.771C936.254 458.66 962.334 456.575 999.093 428.875C1047.12 411.828 1072.03 402.217 1120.41 425.156C1171.68 450.428 1198.89 452.916 1239.56 418.862C1290.32 370.356 1316.77 369.507 1369.28 399.222" stroke="#C4BEBE" stroke-opacity="0.35"/>
<path d="M602.668 459.793C672.693 547.979 670.356 402.654 748.93 458.956C827.503 515.257 846.557 469.498 884.48 460.572C935.256 467.616 960.99 464.8 998.703 439.723C1048.52 427.179 1073.66 417.633 1121.49 435.765C1174.15 459.847 1201.32 461.39 1238.8 424.072C1287.95 372.637 1314.75 370.699 1370.07 401.662" stroke="#C4BEBE" stroke-opacity="0.35"/>
<path d="M602.974 468.929C668.694 550.947 673.941 412.428 750.108 467.753C826.276 523.079 850.265 482.861 885.622 474.375C934.292 476.59 959.675 473.047 998.365 450.585C1050.02 442.528 1075.38 433.045 1122.62 446.375C1176.66 469.254 1203.78 469.853 1238.06 429.299C1285.56 374.948 1312.71 371.918 1370.85 404.104" stroke="#C4BEBE" stroke-opacity="0.35"/>
<path d="M603.31 478.073C664.67 553.962 677.562 422.179 751.316 476.551C825.07 530.922 854.044 496.202 886.84 488.177C933.362 485.584 958.387 481.316 998.079 461.46C1051.6 457.872 1077.2 448.449 1123.79 456.984C1179.22 478.65 1206.28 478.305 1237.31 434.542C1283.16 377.289 1310.63 373.163 1371.61 406.549" stroke="#C4BEBE" stroke-opacity="0.35"/>
<path d="M603.673 487.224C660.623 557.025 681.217 431.907 752.551 485.347C823.885 538.787 857.892 509.52 888.133 501.978C932.466 494.596 957.127 489.606 997.843 472.346C1053.28 473.212 1079.1 463.848 1125.02 467.592C1181.81 488.032 1208.81 486.745 1236.58 439.801C1280.74 379.659 1308.53 374.435 1372.35 408.996" stroke="#C4BEBE" stroke-opacity="0.35"/>
<path d="M604.066 496.382C656.551 560.135 684.909 441.612 753.815 494.143C822.722 546.674 861.812 522.814 889.502 515.778C931.603 503.626 955.895 497.918 997.66 483.244C1055.05 488.546 1081.11 479.238 1126.3 478.198C1184.45 497.402 1211.38 495.172 1235.85 445.075C1278.3 382.059 1306.4 375.734 1373.09 411.445" stroke="#C4BEBE" stroke-opacity="0.35"/>
<path d="M604.487 505.547C652.457 563.293 688.635 451.294 755.108 502.938C821.581 554.582 865.801 536.084 890.946 529.577C930.775 512.674 954.692 506.251 997.529 494.154C1056.91 503.875 1083.2 494.621 1127.64 488.804C1187.13 506.759 1213.98 503.587 1235.13 450.365C1275.84 384.489 1304.24 377.06 1373.8 413.896" stroke="#C4BEBE" stroke-opacity="0.35"/>
<path d="M604.938 514.718C648.339 566.499 692.396 460.952 756.429 511.732C820.463 562.512 869.861 549.33 892.465 543.374C929.981 521.74 953.517 514.605 997.45 505.076C1058.87 519.198 1085.39 509.995 1129.02 499.408C1189.85 516.103 1216.61 511.99 1234.41 455.671C1273.37 386.948 1302.06 378.412 1374.5 416.35" stroke="#C4BEBE" stroke-opacity="0.35"/>
<path d="M605.417 523.896C644.199 569.752 696.192 470.586 757.779 520.524C819.366 570.463 873.991 562.55 894.059 557.167C929.222 530.823 952.371 522.979 997.422 516.007C1060.91 534.513 1087.67 525.36 1130.46 510.009C1192.61 525.433 1219.28 520.379 1233.7 460.993C1270.88 389.438 1299.85 379.792 1375.19 418.806" stroke="#C4BEBE" stroke-opacity="0.35"/>
<path d="M605.926 533.08C640.036 573.054 700.022 480.196 759.157 529.316C818.292 578.436 878.19 575.746 895.729 570.958C928.497 539.924 951.253 531.375 997.447 526.95C1063.05 549.821 1090.04 540.715 1131.95 520.608C1195.42 534.749 1221.99 528.755 1233 466.33C1268.37 391.957 1297.61 381.2 1375.86 421.265" stroke="#C4BEBE" stroke-opacity="0.35"/>
<path d="M606.463 542.27C635.852 576.405 703.888 489.782 760.564 538.105C817.24 586.429 882.459 588.915 897.474 584.746C927.806 549.042 950.164 539.79 997.524 537.903C1065.28 565.121 1092.51 556.06 1133.49 531.204C1198.26 544.051 1224.72 537.118 1232.31 471.683C1265.84 394.507 1295.35 382.635 1376.51 423.727" stroke="#C4BEBE" stroke-opacity="0.35"/>
<path d="M607.03 551.466C631.645 579.803 707.787 499.343 761.999 546.893C816.212 594.443 886.797 602.058 899.295 598.528C927.151 558.176 949.104 548.226 997.654 548.865C1067.6 580.412 1095.06 571.393 1135.08 541.797C1201.15 553.338 1227.49 545.467 1231.63 477.051C1263.3 397.087 1293.07 384.098 1377.15 426.191" stroke="#C4BEBE" stroke-opacity="0.35"/>
<path d="M607.625 560.668C627.418 583.251 711.721 508.88 763.463 555.679C815.206 602.478 891.205 615.175 901.19 612.307C926.53 567.328 948.074 556.682 997.835 559.837C1070.02 595.693 1097.72 586.715 1136.72 552.386C1204.08 562.611 1230.3 553.803 1230.95 482.435C1260.74 399.698 1290.75 385.589 1377.77 428.659" stroke="#C4BEBE" stroke-opacity="0.35"/>
<path d="M608.25 569.876C623.169 586.747 715.689 518.391 764.956 564.462C814.223 610.533 895.682 628.265 903.161 626.081C925.944 576.496 947.073 565.158 998.07 570.818C1072.52 610.964 1100.46 602.024 1138.42 562.972C1207.05 571.869 1233.13 562.125 1230.28 487.835C1258.17 402.339 1288.42 387.108 1378.38 431.129" stroke="#C4BEBE" stroke-opacity="0.35"/>
<path d="M608.905 579.089C618.9 590.292 719.69 527.878 766.477 573.243C813.263 618.609 900.228 641.327 905.208 639.849C925.394 585.68 946.101 573.654 998.356 581.808C1075.12 626.225 1103.3 617.321 1140.16 573.553C1210.06 581.111 1236.01 570.432 1229.61 493.249C1255.58 405.01 1286.05 388.655 1378.97 433.603" stroke="#C4BEBE" stroke-opacity="0.35"/>
<path d="M609.588 588.306C614.611 593.886 723.726 537.339 768.026 582.022C812.327 626.704 904.843 654.36 907.329 653.61C924.879 594.879 945.159 582.168 998.696 592.806C1077.81 641.474 1106.23 632.603 1141.96 584.129C1213.12 590.338 1238.91 578.724 1228.96 498.679C1252.97 407.712 1283.66 390.23 1379.55 436.079" stroke="#C4BEBE" stroke-opacity="0.35"/>
</svg>
